<?xml version="1.0" standalone="no"?>
<!DOCTYPE svg PUBLIC "-//W3C//DTD SVG 20010904//EN"
 "http://www.w3.org/TR/2001/REC-SVG-20010904/DTD/svg10.dtd">
<svg version="1.0" xmlns="http://www.w3.org/2000/svg"
 width="2000.000000pt" height="2000.000000pt" viewBox="0 0 2000.000000 2000.000000"
 preserveAspectRatio="xMidYMid meet">
<metadata>
Created by potrace 1.11, written by Peter Selinger 2001-2013
</metadata>
<g transform="translate(0.000000,2000.000000) scale(0.100000,-0.100000)"
fill="#000000" stroke="none">
<path d="M9807 19994 c-1 -1 -87 -5 -192 -8 -104 -4 -206 -8 -225 -10 -19 -3
-80 -7 -135 -11 -55 -4 -113 -8 -130 -9 -79 -8 -173 -18 -205 -21 -19 -2 -60
-7 -90 -10 -30 -3 -66 -7 -80 -10 -14 -2 -47 -7 -75 -10 -27 -3 -60 -7 -72 -9
-12 -3 -48 -7 -79 -11 -32 -3 -60 -8 -63 -10 -4 -2 -24 -6 -46 -9 -55 -9 -253
-43 -290 -51 -171 -34 -364 -75 -375 -79 -8 -3 -26 -7 -40 -10 -125 -21 -720
-191 -937 -267 -241 -84 -520 -190 -618 -234 -16 -7 -79 -34 -140 -60 -126
-54 -217 -96 -430 -201 -754 -370 -1467 -843 -2113 -1399 -107 -92 -226 -197
-265 -233 -94 -87 -467 -460 -537 -537 -102 -112 -324 -368 -373 -430 -9 -11
-31 -38 -49 -61 -18 -22 -46 -57 -63 -79 -16 -21 -48 -61 -71 -89 -61 -77
-239 -318 -252 -343 -7 -12 -18 -28 -25 -35 -20 -20 -274 -400 -288 -432 -7
-14 -15 -26 -19 -26 -4 0 -11 -8 -14 -17 -6 -18 -11 -26 -57 -98 -14 -22 -34
-56 -45 -75 -10 -19 -24 -42 -30 -50 -6 -8 -25 -40 -41 -70 -17 -30 -42 -75
-56 -100 -14 -25 -49 -88 -77 -140 -74 -137 -360 -720 -360 -735 0 -2 -13 -34
-30 -70 -17 -36 -30 -68 -30 -71 0 -3 -11 -29 -24 -57 -122 -269 -355 -959
-431 -1277 -1 -8 -19 -78 -39 -155 -67 -263 -133 -591 -171 -840 -3 -22 -10
-67 -15 -100 -5 -33 -12 -82 -15 -110 -4 -27 -8 -61 -10 -75 -2 -14 -7 -51
-10 -83 -4 -32 -8 -66 -10 -75 -1 -9 -6 -53 -10 -97 -3 -44 -8 -96 -10 -115
-2 -19 -6 -75 -10 -125 -4 -49 -8 -112 -10 -140 -29 -370 -22 -1038 15 -1460
23 -250 33 -355 47 -450 3 -22 7 -49 8 -60 15 -108 26 -184 30 -205 5 -33 25
-148 30 -180 3 -14 10 -52 15 -85 6 -33 13 -69 14 -80 16 -91 108 -499 146
-643 68 -253 212 -722 250 -807 4 -11 34 -90 65 -175 84 -228 199 -502 307
-730 63 -132 218 -442 227 -455 5 -5 32 -55 61 -109 264 -498 695 -1134 1078
-1591 359 -427 756 -835 1097 -1127 17 -14 68 -59 114 -98 47 -40 130 -109
185 -152 56 -44 118 -94 140 -112 21 -17 120 -91 220 -163 99 -73 186 -136
191 -141 6 -4 109 -73 230 -153 217 -144 454 -289 630 -385 50 -28 108 -60
130 -72 38 -22 588 -295 630 -313 11 -5 87 -38 168 -74 82 -36 153 -65 158
-65 4 0 28 -9 51 -19 81 -37 113 -49 283 -111 94 -34 179 -66 190 -71 11 -4
79 -27 150 -49 72 -23 155 -50 185 -60 52 -17 140 -43 205 -61 41 -11 186 -49
205 -54 304 -78 356 -90 585 -135 179 -36 269 -52 360 -65 22 -3 63 -10 90
-15 28 -5 73 -11 100 -14 28 -3 61 -8 75 -10 28 -5 110 -15 185 -22 28 -3 64
-7 81 -9 28 -4 70 -8 194 -20 181 -17 325 -20 855 -20 537 0 651 3 843 20 28
3 78 7 110 10 100 9 156 15 182 20 14 2 54 7 90 10 36 4 76 8 90 10 14 2 61 9
105 15 44 6 103 15 130 20 28 5 68 12 90 15 23 3 52 7 65 10 36 7 136 25 167
31 534 91 1521 393 2000 610 28 13 54 24 57 24 28 0 658 305 870 422 441 243
987 597 1281 830 6 5 62 49 125 99 63 50 124 98 135 107 165 139 252 213 290
247 400 358 676 635 940 945 50 58 92 107 95 110 4 3 33 39 65 80 33 41 62 77
65 80 4 3 42 52 86 109 43 58 86 112 94 121 8 9 22 27 30 40 8 12 24 35 36 49
151 192 576 848 674 1041 12 25 25 47 29 50 19 16 369 719 372 747 0 5 4 13 9
18 13 17 149 340 221 528 65 167 191 536 238 692 49 167 80 288 76 296 -3 4
-1 10 4 13 5 3 12 23 16 43 5 21 9 43 11 48 28 107 45 174 49 190 2 11 16 72
30 135 14 63 28 126 31 140 2 14 7 36 10 50 3 14 8 36 10 50 2 14 9 45 14 70
9 41 30 162 46 264 3 21 7 46 9 55 1 9 6 41 10 71 4 30 9 64 11 75 2 11 7 47
10 80 4 33 8 62 9 65 2 3 7 42 10 85 4 44 9 88 11 98 1 9 6 56 9 105 4 48 9
94 10 104 28 144 27 1545 0 1690 -2 11 -7 54 -10 96 -3 42 -8 91 -10 107 -2
17 -6 55 -9 85 -10 95 -21 185 -31 241 -2 13 -6 40 -9 59 -2 19 -8 58 -12 85
-3 28 -8 59 -10 70 -2 11 -13 72 -24 135 -19 112 -24 138 -35 190 -3 14 -8 43
-11 65 -3 22 -8 43 -10 46 -2 3 -5 19 -8 35 -10 53 -57 257 -88 379 -16 66
-31 125 -32 130 -1 6 -4 15 -8 20 -3 6 -25 78 -48 160 -54 191 -204 645 -264
796 -25 64 -46 119 -46 123 0 4 -9 26 -19 49 -10 23 -35 83 -56 132 -38 92
-55 132 -106 243 -16 35 -29 65 -29 68 0 2 -45 95 -99 207 -289 586 -611 1117
-980 1612 -95 128 -326 423 -340 435 -3 3 -46 52 -96 110 -49 58 -94 110 -100
116 -5 6 -41 46 -80 89 -194 218 -465 489 -685 685 -52 47 -101 91 -109 99 -9
8 -67 57 -131 110 -63 53 -117 98 -120 101 -11 11 -151 122 -245 193 -55 42
-104 80 -110 85 -5 4 -71 51 -145 105 -74 53 -139 100 -145 104 -36 30 -467
308 -565 366 -17 9 -45 26 -62 36 -42 25 -167 96 -238 134 -30 17 -84 47 -120
67 -65 36 -473 239 -487 242 -5 1 -39 17 -78 36 -38 19 -117 54 -175 79 -58
24 -124 53 -147 64 -60 27 -431 169 -473 181 -19 5 -48 16 -65 23 -31 13 -234
81 -408 135 -85 26 -490 136 -536 145 -9 2 -56 13 -106 24 -98 24 -297 68
-348 77 -282 51 -561 93 -757 114 -52 6 -113 12 -135 15 -134 15 -374 32 -600
41 -134 6 -604 11 -608 8z m587 -3748 c43 -3 100 -8 125 -10 25 -3 78 -7 116
-11 39 -3 81 -8 95 -10 14 -2 50 -7 80 -10 30 -3 66 -7 80 -10 14 -3 45 -8 70
-11 101 -13 139 -19 355 -65 189 -39 164 -33 278 -63 473 -122 1042 -350 1455
-584 41 -23 78 -42 83 -42 5 0 9 -4 9 -9 0 -5 8 -11 18 -15 22 -7 48 -23 202
-120 388 -247 719 -510 1080 -861 599 -582 1156 -1449 1439 -2240 18 -49 36
-99 41 -110 27 -60 146 -460 184 -615 30 -125 65 -296 85 -415 18 -113 24
-152 37 -250 3 -22 7 -53 9 -70 3 -16 7 -64 11 -105 3 -41 7 -86 9 -100 24
-144 24 -893 1 -1040 -3 -14 -7 -59 -11 -100 -6 -80 -14 -149 -21 -190 -2 -14
-9 -61 -15 -105 -9 -66 -57 -337 -73 -410 -78 -354 -232 -845 -350 -1110 -15
-33 -31 -69 -36 -80 -115 -270 -360 -728 -467 -871 -13 -17 -23 -34 -23 -37 0
-8 -146 -219 -230 -332 -361 -487 -795 -919 -1300 -1294 -74 -55 -360 -248
-445 -300 -554 -340 -1155 -591 -1788 -746 -185 -46 -477 -100 -647 -120 -30
-4 -57 -8 -60 -10 -3 -2 -41 -6 -85 -9 -44 -4 -93 -8 -110 -11 -28 -3 -141
-11 -290 -20 -81 -5 -524 -5 -605 0 -189 11 -267 17 -290 20 -14 2 -54 7 -90
10 -36 4 -114 13 -175 22 -60 8 -123 17 -140 19 -50 6 -245 43 -320 60 -38 8
-99 22 -135 30 -74 16 -83 19 -275 74 -143 42 -254 76 -290 91 -11 4 -60 22
-110 39 -353 125 -808 343 -1118 536 -66 41 -123 74 -127 74 -5 0 -10 3 -12 8
-1 4 -43 34 -93 66 -156 102 -521 378 -607 458 -7 7 -54 49 -103 93 -90 79
-349 336 -435 430 -221 243 -450 541 -629 820 -110 170 -114 177 -127 200 -6
11 -37 65 -69 120 -53 92 -255 486 -255 498 0 3 -13 34 -29 69 -92 200 -219
551 -292 806 -35 123 -34 119 -59 227 -6 28 -13 57 -15 65 -10 41 -55 259 -60
290 -3 19 -8 42 -10 50 -3 8 -7 35 -10 60 -2 25 -7 56 -9 70 -7 36 -34 243
-41 320 -3 36 -8 83 -10 105 -24 240 -24 847 -1 1050 3 22 8 72 12 110 10 100
11 114 18 170 18 140 25 186 47 310 11 61 23 124 26 140 16 93 78 346 117 478
89 301 175 537 302 826 9 20 55 115 102 211 258 529 608 1041 1011 1478 125
137 304 316 400 402 46 41 89 80 95 86 13 12 166 137 220 179 21 17 44 35 50
40 23 22 304 223 371 265 39 25 75 48 80 53 15 12 116 77 120 77 2 0 50 28
107 62 367 218 763 396 1223 549 97 33 394 118 435 126 14 2 59 12 100 23 41
10 95 22 120 26 25 4 47 8 50 9 15 3 78 16 96 19 78 15 344 54 414 61 36 3 81
8 100 11 43 6 114 11 285 20 72 4 131 8 132 9 6 4 525 -4 597 -9z"/>
</g>
</svg>
